<svg width="29" height="29" viewBox="0 0 29 29" fill="none" xmlns="http://www.w3.org/2000/svg">
<path d="M28.8266 19.0789C28.7444 18.7695 28.7238 18.4189 28.6211 18.1095C27.9842 16.0676 26.6075 14.8713 24.5324 14.4587C23.9571 14.335 23.3612 14.4175 22.7859 14.4587C22.1695 14.5206 21.5326 14.5825 20.9162 14.665C20.0738 14.7475 19.2108 14.83 18.3684 14.9125C17.5466 14.995 16.7247 15.0775 15.9029 15.16C15.0399 15.2425 14.177 15.3456 13.2935 15.4282C12.4922 15.5107 11.6909 15.5725 10.869 15.655C9.82114 15.7582 8.79382 15.8613 7.74595 15.9644C6.9241 16.0469 6.10224 16.1501 5.28039 16.1913C3.96542 16.2738 2.73263 16.6038 1.72586 17.532C0.760178 18.4189 0.205425 19.4915 0.0616006 20.7909C0.0616006 20.8528 0.0410542 20.894 0.0205078 20.9353C0.0410542 21.4509 0.12324 21.9666 0.225972 22.4616C0.308157 22.7916 0.390343 23.1216 0.513621 23.4516C1.66422 26.6693 4.84891 29.0206 8.30071 29.0206H8.3418C10.5403 29.0206 12.7182 29.0206 14.9166 29.0206C17.1151 29.0206 18.5739 29.0206 20.4025 29.0206C20.5669 29.0206 20.7107 29.0206 20.8751 29.0206C22.4777 28.9381 23.9571 28.4431 25.272 27.4737C26.5665 26.5455 27.5116 25.3905 28.1074 24.0291C28.3951 23.3691 28.6005 22.6472 28.7238 21.8634C28.8677 20.9559 28.806 20.0483 28.8266 19.1202V19.0789ZM12.2251 20.7084C10.643 22.2966 9.06092 23.8848 7.47885 25.473C7.29393 25.6586 7.08847 25.8442 6.90355 26.0505C6.82137 26.1536 6.75973 26.133 6.67754 26.0505C5.71186 25.0604 4.72563 24.091 3.75995 23.101C3.61613 22.9566 3.53394 22.771 3.55449 22.6266C3.55449 22.2141 3.71886 21.9872 4.02706 21.8428C4.3558 21.6984 4.64345 21.7809 4.89 22.0284C5.4653 22.606 6.0406 23.1835 6.6159 23.761C6.75973 23.9054 6.84191 23.926 6.98574 23.761C8.36235 22.3584 9.7595 20.9765 11.1567 19.574C11.4032 19.3264 11.6909 19.2233 12.0196 19.3471C12.3278 19.4502 12.4922 19.6977 12.5333 20.0071C12.5538 20.2959 12.4305 20.5021 12.2456 20.7084H12.2251Z" fill="#020102"/>
<path d="M28.8266 13.1593C28.8266 15.1394 28.8266 17.0988 28.8266 19.0789C28.7444 18.7695 28.7238 18.4189 28.6211 18.1095C27.9842 16.0675 26.6075 14.8712 24.5324 14.4587C23.9571 14.335 23.3612 14.4175 22.7859 14.4587C22.1695 14.5206 21.5326 14.5825 20.9162 14.665C20.0738 14.7475 19.2108 14.83 18.3684 14.9125C17.5466 14.995 16.7247 15.0775 15.9029 15.16C15.0399 15.2425 14.177 15.3456 13.2935 15.4281C12.4922 15.5106 11.6909 15.5725 10.869 15.655C9.82114 15.7582 8.79382 15.8613 7.74595 15.9644C6.9241 16.0469 6.10224 16.15 5.28039 16.1913C3.96542 16.2738 2.73263 16.6038 1.72586 17.532C0.760178 18.4189 0.205425 19.4914 0.0616006 20.7909C0.0616006 20.8527 0.0410542 20.894 0.0205078 20.9352C0.0205078 20.6259 0.0205078 20.3165 0.0205078 20.0071C0.0205078 17.037 0.0205078 14.0668 0.0205078 11.0967C0.0205078 8.49784 1.7875 6.394 4.3558 5.98148C5.05438 5.85772 5.75295 5.98148 6.45153 6.04336C7.66377 6.14649 8.87601 6.29087 10.0882 6.394C11.7114 6.559 13.314 6.72401 14.9372 6.86839C16.5193 7.01277 18.1013 7.15716 19.6629 7.32216C21.3477 7.5078 23.053 7.56967 24.7378 7.85844C26.8747 8.20908 28.5389 10.0654 28.7649 12.2311C28.806 12.5405 28.806 12.8499 28.806 13.1593H28.8266Z" fill="#635BFF"/>
<path d="M3.53418 22.6266C3.53418 22.2141 3.69855 21.9872 4.00675 21.8428C4.33549 21.6984 4.62314 21.7809 4.8697 22.0284C5.44499 22.6059 6.02029 23.1835 6.59559 23.761C6.73942 23.9054 6.8216 23.926 6.96543 23.761C8.34204 22.3584 9.73919 20.9765 11.1363 19.5739C11.3829 19.3264 11.6706 19.2233 11.9993 19.3471C12.3075 19.4502 12.4719 19.6977 12.513 20.0071C12.5335 20.2958 12.4308 20.5021 12.2253 20.7084C10.6432 22.2966 9.06116 23.8848 7.47909 25.4729C7.29417 25.6586 7.08871 25.8442 6.90379 26.0505C6.8216 26.1536 6.75996 26.133 6.67778 26.0505C5.7121 25.0604 4.72587 24.091 3.76019 23.101C3.61636 22.9566 3.53418 22.771 3.55473 22.6266H3.53418Z" fill="white"/>
<path opacity="0.6" d="M28.8472 8.51849V20.4815C28.8472 21.7397 28.5801 22.9154 28.1075 23.9879C28.3952 23.3279 28.6006 22.606 28.7239 21.8222C28.8677 20.9147 28.8061 20.0071 28.8266 19.0789C28.8266 17.0989 28.8266 15.1394 28.8266 13.1593C28.8266 12.8499 28.8266 12.5405 28.7855 12.2312C28.539 10.0654 26.8747 8.2091 24.7584 7.85846C23.0736 7.5697 21.3683 7.4872 19.6835 7.32219C18.1014 7.15718 16.5193 7.0128 14.9578 6.86842C13.3347 6.70341 11.732 6.55903 10.1089 6.39403C8.89663 6.27027 7.68439 6.14651 6.47215 6.04339C5.77358 5.98151 5.075 5.85775 4.37642 5.98151C1.80812 6.41465 0.020585 8.49787 0.020585 11.0967C0.020585 14.0669 0.020585 17.037 0.020585 20.0071C0.020585 20.3165 0.020585 20.6259 0.020585 20.9353C0.0411314 21.4509 0.123317 21.9666 0.226049 22.4616C0.308235 22.7916 0.39042 23.1216 0.513699 23.4516C0.16441 22.5235 -0.0205078 21.5334 -0.0205078 20.4815V8.51849C3.85869e-05 3.81579 3.80112 0 8.4857 0H20.3615C25.0461 0 28.8472 3.81579 28.8472 8.51849Z" fill="#16CDC7"/>
</svg>
