<svg width="443" height="141" viewBox="0 0 443 141" fill="none" xmlns="http://www.w3.org/2000/svg">
<g clip-path="url(#clip0_2028_2)">
<path d="M140.3 92.5C139.9 91 139.8 89.3 139.3 87.8C136.2 77.9 129.5 72.1 119.4 70.1C116.6 69.5 113.7 69.9 110.9 70.1C107.9 70.4 104.8 70.7 101.8 71.1C97.6999 71.5 93.4999 71.9 89.3999 72.3C85.3999 72.7 81.3999 73.1 77.3999 73.5C73.1999 73.9 68.9999 74.4 64.6999 74.8C60.7999 75.2 56.8999 75.5 52.8999 75.9C47.7999 76.4 42.7999 76.9 37.6999 77.4C33.6999 77.8 29.6999 78.3 25.6999 78.5C19.2999 78.9 13.2999 80.5 8.39985 85C3.69985 89.3 0.999854 94.5 0.299854 100.8C0.299854 101.1 0.199854 101.3 0.0998535 101.5C0.199854 104 0.599854 106.5 1.09985 108.9C1.49985 110.5 1.89985 112.1 2.49985 113.7C8.09985 129.3 23.5999 140.7 40.3999 140.7H40.5999C51.2999 140.7 61.8999 140.7 72.5999 140.7C83.2999 140.7 90.3999 140.7 99.2999 140.7C100.1 140.7 100.8 140.7 101.6 140.7C109.4 140.3 116.6 137.9 123 133.2C129.3 128.7 133.9 123.1 136.8 116.5C138.2 113.3 139.2 109.8 139.8 106C140.5 101.6 140.2 97.2 140.3 92.7V92.5ZM59.4999 100.4C51.7999 108.1 44.0999 115.8 36.3999 123.5C35.4999 124.4 34.4999 125.3 33.5999 126.3C33.1999 126.8 32.8999 126.7 32.4999 126.3C27.7999 121.5 22.9999 116.8 18.2999 112C17.5999 111.3 17.1999 110.4 17.2999 109.7C17.2999 107.7 18.0999 106.6 19.5999 105.9C21.1999 105.2 22.5999 105.6 23.7999 106.8C26.5999 109.6 29.3999 112.4 32.1999 115.2C32.8999 115.9 33.2999 116 33.9999 115.2C40.6999 108.4 47.4999 101.7 54.2999 94.9C55.4999 93.7 56.8999 93.2 58.4999 93.8C59.9999 94.3 60.7999 95.5 60.9999 97C61.0999 98.4 60.4999 99.4 59.5999 100.4H59.4999Z" fill="#020102"/>
<path d="M140.3 63.8C140.3 73.4 140.3 82.9 140.3 92.5C139.9 91 139.8 89.3 139.3 87.8C136.2 77.9 129.5 72.1 119.4 70.1C116.6 69.5 113.7 69.9 110.9 70.1C107.9 70.4 104.8 70.7 101.8 71.1C97.6999 71.5 93.4999 71.9 89.3999 72.3C85.3999 72.7 81.3999 73.1 77.3999 73.5C73.1999 73.9 68.9999 74.4 64.6999 74.8C60.7999 75.2 56.8999 75.5 52.8999 75.9C47.7999 76.4 42.7999 76.9 37.6999 77.4C33.6999 77.8 29.6999 78.3 25.6999 78.5C19.2999 78.9 13.2999 80.5 8.39985 85C3.69985 89.3 0.999854 94.5 0.299854 100.8C0.299854 101.1 0.199854 101.3 0.0998535 101.5C0.0998535 100 0.0998535 98.5 0.0998535 97C0.0998535 82.6 0.0998535 68.2 0.0998535 53.8C0.0998535 41.2 8.69985 31 21.1999 29C24.5999 28.4 27.9999 29 31.3999 29.3C37.2999 29.8 43.1999 30.5 49.0999 31C56.9999 31.8 64.7999 32.6 72.6999 33.3C80.3999 34 88.0999 34.7 95.6999 35.5C103.9 36.4 112.2 36.7 120.4 38.1C130.8 39.8 138.9 48.8 140 59.3C140.2 60.8 140.2 62.3 140.2 63.8H140.3Z" fill="#635BFF"/>
<path d="M17.2 109.7C17.2 107.7 18 106.6 19.5 105.9C21.1 105.2 22.5 105.6 23.7 106.8C26.5 109.6 29.2999 112.4 32.0999 115.2C32.7999 115.9 33.2 116 33.9 115.2C40.6 108.4 47.4 101.7 54.2 94.9C55.4 93.7 56.8 93.2 58.4 93.8C59.9 94.3 60.7 95.5 60.9 97C61 98.4 60.5 99.4 59.5 100.4C51.8 108.1 44.1 115.8 36.4 123.5C35.5 124.4 34.4999 125.3 33.5999 126.3C33.1999 126.8 32.9 126.7 32.5 126.3C27.8 121.5 22.9999 116.8 18.2999 112C17.5999 111.3 17.1999 110.4 17.2999 109.7H17.2Z" fill="white"/>
<path opacity="0.6" d="M140.4 41.3V99.3C140.4 105.4 139.1 111.1 136.8 116.3C138.2 113.1 139.2 109.6 139.8 105.8C140.5 101.4 140.2 97 140.3 92.5C140.3 82.9 140.3 73.4 140.3 63.8C140.3 62.3 140.3 60.8 140.1 59.3C138.9 48.8 130.8 39.8 120.5 38.1C112.3 36.7 104 36.3 95.7999 35.5C88.0999 34.7 80.3999 34 72.7999 33.3C64.8999 32.5 57.0999 31.8 49.1999 31C43.2999 30.4 37.3999 29.8 31.4999 29.3C28.0999 29 24.6999 28.4 21.2999 29C8.7999 31.1 0.0999023 41.2 0.0999023 53.8C0.0999023 68.2 0.0999023 82.6 0.0999023 97C0.0999023 98.5 0.0999023 100 0.0999023 101.5C0.199902 104 0.599902 106.5 1.0999 108.9C1.4999 110.5 1.8999 112.1 2.4999 113.7C0.799902 109.2 -0.100098 104.4 -0.100098 99.3V41.3C-9.76548e-05 18.5 18.4999 0 41.2999 0H99.0999C121.9 0 140.4 18.5 140.4 41.3Z" fill="#16CDC7"/>
<path d="M167.4 140.6V37.4H213.4C219.6 37.4 225 39.7 229.5 44.2C234 48.7 236.2 54.1 236.2 60.4V71.8C236.2 78 234 83.4 229.5 88C225 92.5 219.6 94.8 213.4 94.8H190.4V140.6H167.4ZM190.4 83.2H201.8C205 83.2 207.7 82.1 210 79.8C212.2 77.6 213.4 74.9 213.4 71.7V60.3C213.4 57.1 212.3 54.4 210 52.1C207.8 49.9 205 48.7 201.8 48.7H190.4V83.1V83.2Z" fill="#020102"/>
<path d="M328 140.6H305.1V83.2C305.1 80.1 304 77.4 301.7 75.1C299.5 72.9 296.7 71.7 293.5 71.7C290.3 71.7 287.7 72.8 285.4 75.1C283.1 77.4 282 80 282 83.2V140.6H259V60.4H282V71.8C282.5 67.9 283.7 65.1 285.6 63.2C287.5 61.3 290.1 60.4 293.4 60.4H305C312.8 60.4 318.5 63.1 322.2 68.5C324 65.7 326.4 63.7 329.2 62.4C332 61.1 335.4 60.4 339.4 60.4H350.8C357 60.4 362.4 62.6 367 67.1C371.5 71.6 373.8 77 373.8 83.2V140.6H350.8V83.2C350.8 80.2 349.7 77.5 347.4 75.2C345.2 72.9 342.5 71.8 339.3 71.8C336.1 71.8 333.5 72.9 331.2 75.2C328.9 77.4 327.8 80.1 327.8 83.3V140.7L328 140.6Z" fill="#020102"/>
<path d="M408.4 37.4H431.3V60.4H442.9V71.8H431.3V117.6C431.3 121.4 432.5 124.2 435 126.2C437.5 128.2 439.7 129.2 441.7 129.2H442.8V140.6H431.2C425 140.6 419.6 138.4 415.1 133.9C410.6 129.4 408.4 124 408.4 117.7V71.9H396.8V60.5H408.4V37.5V37.4Z" fill="#020102"/>
</g>
<defs>
<clipPath id="clip0_2028_2">
<rect width="442.9" height="140.6" fill="white"/>
</clipPath>
</defs>
</svg>
